<svg width="110" height="110" viewBox="0 0 110 110" fill="none" xmlns="http://www.w3.org/2000/svg">
  <rect width="110" height="110" rx="15" fill="#19DEA3"/>
  <path d="M87.1827 77.8663H73.962L54.7042 64.7476H42.2975V56.6352H62.1581C64.4814 56.6352 66.7096 55.7119 68.3525 54.0683C69.9953 52.4248 70.9183 50.1957 70.9183 47.8714C70.9183 45.547 69.9953 43.3179 68.3525 41.6744C66.7096 40.0308 64.4814 39.1075 62.1581 39.1075H29.0374V31H60.7758C71.4599 31 79.0283 38.5705 79.0283 47.8783C79.0283 55.0471 74.1416 61.7747 67.2678 63.9669L87.1827 77.8663ZM74.8213 75.2359H79.2739L60.8005 62.0748L64.1205 61.9928C71.1758 61.067 76.3979 54.9958 76.3979 47.8704C76.3979 40.0156 70.0106 33.6245 62.1591 33.6245H31.6993V36.4751H62.1581C65.1606 36.503 68.0305 37.7159 70.1438 39.8498C72.257 41.9837 73.4426 44.866 73.4426 47.8699C73.4426 50.8737 72.257 53.7561 70.1438 55.89C68.0305 58.0239 65.1606 59.2367 62.1581 59.2647H44.9268V62.1152H55.5636L74.8213 75.2359Z" fill="white"/>
  <path d="M37.0477 77.8663H29.136V43.8137H61.8049C62.8804 43.8137 63.9118 44.2411 64.6722 45.0018C65.4327 45.7626 65.8599 46.7945 65.8599 47.8704C65.8599 48.9463 65.4327 49.9781 64.6722 50.7389C63.9118 51.4997 62.8804 51.9271 61.8049 51.9271H37.0477V77.8663ZM31.7664 75.2358H34.3247V49.2956H61.8098C62.1877 49.2956 62.5501 49.1455 62.8173 48.8782C63.0844 48.6109 63.2345 48.2484 63.2345 47.8704C63.2345 47.4924 63.0844 47.1298 62.8173 46.8625C62.5501 46.5952 62.1877 46.4451 61.8098 46.4451H31.7664V75.2358Z" fill="white"/>
</svg>
